<svg width="15" height="14" viewBox="0 0 15 14" fill="none" xmlns="http://www.w3.org/2000/svg">
<path d="M14.4863 6.4668C14.4772 6.39388 14.459 6.32096 14.4316 6.24805C14.4043 6.17513 14.3678 6.11133 14.3223 6.05664L14.3086 6.04297C14.2904 6.01562 14.2676 5.98828 14.2402 5.96094C14.2129 5.93359 14.1855 5.90625 14.1582 5.87891L11.875 3.58203V2.17383C11.875 2.05534 11.8317 1.9528 11.7451 1.86621C11.6585 1.77962 11.556 1.73633 11.4375 1.73633H10.0566L8.45703 0.369141C8.21094 0.123047 7.90104 0 7.52734 0C7.15365 0 6.84375 0.123047 6.59766 0.369141L5.01172 1.73633H3.5625C3.44401 1.73633 3.34147 1.77962 3.25488 1.86621C3.16829 1.9528 3.125 2.05534 3.125 2.17383V3.60938L0.896484 5.83789C0.777995 5.91992 0.682292 6.02474 0.609375 6.15234C0.536458 6.27995 0.5 6.42122 0.5 6.57617V13.125C0.5 13.3711 0.586589 13.5785 0.759766 13.7471C0.932943 13.9157 1.13802 14 1.375 14H13.625C13.862 14 14.0671 13.9157 14.2402 13.7471C14.4134 13.5785 14.5 13.3711 14.5 13.125V6.58984C14.5 6.57161 14.5 6.55111 14.5 6.52832C14.5 6.50553 14.4954 6.48503 14.4863 6.4668ZM4.17773 9.92578L1.375 12.5234V7.45117L4.17773 9.92578ZM5.02539 10.3359C5.05273 10.3177 5.0778 10.2995 5.10059 10.2812C5.12337 10.263 5.14844 10.2402 5.17578 10.2129C5.1849 10.2038 5.19401 10.1924 5.20312 10.1787C5.21224 10.165 5.22135 10.1491 5.23047 10.1309L7.11719 8.38086C7.16276 8.3444 7.21517 8.31478 7.27441 8.29199C7.33366 8.26921 7.39518 8.25781 7.45898 8.25781C7.52279 8.25781 7.58431 8.26921 7.64355 8.29199C7.7028 8.31478 7.75065 8.33984 7.78711 8.36719L13.0371 13.125H2.00391L5.02539 10.3359ZM10.8633 9.98047L13.625 7.5332V12.4688L10.8633 9.98047ZM12.7773 5.70117H12.7637L13.5156 6.45312L11.875 7.91602V4.79883L12.7773 5.70117ZM7.21289 0.984375C7.25846 0.947917 7.30859 0.918294 7.36328 0.895508C7.41797 0.872722 7.47266 0.861328 7.52734 0.861328C7.58203 0.861328 7.63672 0.872722 7.69141 0.895508C7.74609 0.918294 7.79622 0.947917 7.8418 0.984375L8.7168 1.73633H6.33789L7.21289 0.984375ZM11 2.61133V8.69531L10.2207 9.39258L8.34766 7.69727C8.09245 7.49674 7.7985 7.39421 7.46582 7.38965C7.13314 7.38509 6.83008 7.49219 6.55664 7.71094L4.82031 9.32422L4 8.59961V2.61133H11ZM1.92188 6.05664L3.125 4.85352V7.82031L1.52539 6.41211L1.89453 6.05664H1.92188Z" fill="#C19B76"/>
</svg>
