<svg width="33" height="28" viewBox="0 0 33 28" fill="none" xmlns="http://www.w3.org/2000/svg">
<path d="M19.2384 14.1557C19.2384 15.3932 18.9796 16.4953 18.462 17.4621C17.9444 18.4289 17.2067 19.1845 16.2488 19.7288C15.2909 20.2732 14.1933 20.5454 12.9558 20.5454C12.0693 20.5454 11.2215 20.3729 10.4124 20.0278C9.60323 19.6827 8.90714 19.2187 8.32409 18.6356C7.74104 18.0526 7.27698 17.3565 6.93191 16.5474C6.58684 15.7382 6.41431 14.8904 6.41431 14.0039C6.41431 13.1175 6.58684 12.2697 6.93191 11.4605C7.27698 10.6514 7.74104 9.95532 8.32409 9.37227C8.90714 8.78922 9.60323 8.32516 10.4124 7.98009C11.2215 7.63502 12.0693 7.46249 12.9558 7.46249C14.6573 7.46249 16.1179 8.03364 17.3376 9.17594L15.5616 10.8805C14.8656 10.2082 13.9969 9.87203 12.9558 9.87203C12.224 9.87203 11.5472 10.0565 10.9255 10.4253C10.3038 10.7942 9.81147 11.2954 9.44855 11.9291C9.08563 12.5627 8.90417 13.2543 8.90417 14.0039C8.90417 14.7536 9.08563 15.4452 9.44855 16.0788C9.81147 16.7125 10.3038 17.2137 10.9255 17.5826C11.5472 17.9514 12.224 18.1359 12.9558 18.1359C13.4496 18.1359 13.9032 18.0674 14.3167 17.9306C14.7302 17.7938 15.0708 17.6227 15.3385 17.4175C15.6063 17.2122 15.8398 16.9787 16.0391 16.7169C16.2384 16.4551 16.3842 16.2082 16.4764 15.9762C16.5686 15.7442 16.6326 15.524 16.6683 15.3158H12.9558V13.0669H19.1313C19.2027 13.4417 19.2384 13.8046 19.2384 14.1557ZM26.9757 13.0669V14.941H25.1106V16.8062H23.2365V14.941H21.3713V13.0669H23.2365V11.2017H25.1106V13.0669H26.9757Z" fill="#C19B76"/>
</svg>
