<svg width="27" height="28" viewBox="0 0 27 28" fill="none" xmlns="http://www.w3.org/2000/svg">
<path d="M15.4461 15.6161C15.4461 15.6161 15.5577 15.5045 15.7809 15.2813C16.0042 15.0581 16.1158 14.631 16.1158 14C16.1158 13.3691 15.8925 12.8304 15.4461 12.384C14.9997 11.9375 14.461 11.7143 13.83 11.7143C13.1991 11.7143 12.6604 11.9375 12.214 12.384C11.7675 12.8304 11.5443 13.3691 11.5443 14C11.5443 14.631 11.7675 15.1697 12.214 15.6161C12.6604 16.0625 13.1991 16.2857 13.83 16.2857C14.461 16.2857 14.9997 16.0625 15.4461 15.6161ZM16.3211 11.509C16.3211 11.509 16.4922 11.6801 16.8345 12.0224C17.1768 12.3646 17.3479 13.0238 17.3479 14C17.3479 14.9762 17.0056 15.8066 16.3211 16.4911C15.6366 17.1756 14.8062 17.5179 13.83 17.5179C12.8539 17.5179 12.0235 17.1756 11.339 16.4911C10.6544 15.8066 10.3122 14.9762 10.3122 14C10.3122 13.0238 10.6544 12.1935 11.339 11.509C12.0235 10.8244 12.8539 10.4822 13.83 10.4822C14.8062 10.4822 15.6366 10.8244 16.3211 11.509ZM18.0711 9.75896C18.0711 9.75896 18.1113 9.79914 18.1917 9.8795C18.272 9.95986 18.3122 10.1131 18.3122 10.3393C18.3122 10.5655 18.2318 10.759 18.0711 10.9197C17.9104 11.0804 17.7169 11.1607 17.4908 11.1607C17.2646 11.1607 17.0711 11.0804 16.9104 10.9197C16.7497 10.759 16.6693 10.5655 16.6693 10.3393C16.6693 10.1131 16.7497 9.91968 16.9104 9.75896C17.0711 9.59825 17.2646 9.51789 17.4908 9.51789C17.7169 9.51789 17.9104 9.59825 18.0711 9.75896ZM14.5131 8.37057C14.5131 8.37057 14.4097 8.37131 14.2028 8.3728C13.996 8.37429 13.8717 8.37503 13.83 8.37503C13.7884 8.37503 13.5607 8.37355 13.147 8.37057C12.7333 8.36759 12.4193 8.36759 12.205 8.37057C11.9908 8.37355 11.7036 8.38247 11.3434 8.39736C10.9833 8.41224 10.6768 8.442 10.4238 8.48664C10.1708 8.53128 9.95802 8.58634 9.7854 8.65182C9.48778 8.77087 9.22588 8.94349 8.99969 9.16968C8.7735 9.39587 8.60088 9.65777 8.48183 9.95539C8.41635 10.128 8.36129 10.3408 8.31665 10.5938C8.27201 10.8468 8.24225 11.1533 8.22736 11.5134C8.21248 11.8735 8.20356 12.1607 8.20058 12.375C8.1976 12.5893 8.1976 12.9033 8.20058 13.317C8.20356 13.7307 8.20504 13.9584 8.20504 14C8.20504 14.0417 8.20356 14.2694 8.20058 14.6831C8.1976 15.0968 8.1976 15.4107 8.20058 15.625C8.20356 15.8393 8.21248 16.1265 8.22736 16.4866C8.24225 16.8468 8.27201 17.1533 8.31665 17.4063C8.36129 17.6593 8.41635 17.8721 8.48183 18.0447C8.60088 18.3423 8.7735 18.6042 8.99969 18.8304C9.22588 19.0566 9.48778 19.2292 9.7854 19.3482C9.95802 19.4137 10.1708 19.4688 10.4238 19.5134C10.6768 19.5581 10.9833 19.5878 11.3434 19.6027C11.7036 19.6176 11.9908 19.6265 12.205 19.6295C12.4193 19.6325 12.7333 19.6325 13.147 19.6295C13.5607 19.6265 13.7884 19.625 13.83 19.625C13.8717 19.625 14.0994 19.6265 14.5131 19.6295C14.9268 19.6325 15.2408 19.6325 15.455 19.6295C15.6693 19.6265 15.9565 19.6176 16.3167 19.6027C16.6768 19.5878 16.9833 19.5581 17.2363 19.5134C17.4893 19.4688 17.7021 19.4137 17.8747 19.3482C18.1723 19.2292 18.4342 19.0566 18.6604 18.8304C18.8866 18.6042 19.0592 18.3423 19.1783 18.0447C19.2437 17.8721 19.2988 17.6593 19.3434 17.4063C19.3881 17.1533 19.4178 16.8468 19.4327 16.4866C19.4476 16.1265 19.4565 15.8393 19.4595 15.625C19.4625 15.4107 19.4625 15.0968 19.4595 14.6831C19.4565 14.2694 19.455 14.0417 19.455 14C19.455 13.9584 19.4565 13.7307 19.4595 13.317C19.4625 12.9033 19.4625 12.5893 19.4595 12.375C19.4565 12.1607 19.4476 11.8735 19.4327 11.5134C19.4178 11.1533 19.3881 10.8468 19.3434 10.5938C19.2988 10.3408 19.2437 10.128 19.1783 9.95539C19.0592 9.65777 18.8866 9.39587 18.6604 9.16968C18.4342 8.94349 18.1723 8.77087 17.8747 8.65182C17.7021 8.58634 17.4893 8.53128 17.2363 8.48664C16.9833 8.442 16.6768 8.41224 16.3167 8.39736C15.9565 8.38247 15.6693 8.37355 15.455 8.37057C15.2408 8.36759 14.9268 8.36759 14.5131 8.37057ZM20.6425 11.1697C20.6723 11.6935 20.6872 12.6369 20.6872 14C20.6872 15.3631 20.6723 16.3066 20.6425 16.8304C20.583 18.0685 20.214 19.0268 19.5354 19.7054C18.8568 20.384 17.8985 20.753 16.6604 20.8125C16.1366 20.8423 15.1931 20.8572 13.83 20.8572C12.4669 20.8572 11.5235 20.8423 10.9997 20.8125C9.76159 20.753 8.80326 20.384 8.12469 19.7054C7.44611 19.0268 7.07707 18.0685 7.01754 16.8304C6.98778 16.3066 6.9729 15.3631 6.9729 14C6.9729 12.6369 6.98778 11.6935 7.01754 11.1697C7.07707 9.93158 7.44611 8.97325 8.12469 8.29468C8.80326 7.61611 9.76159 7.24706 10.9997 7.18753C11.5235 7.15777 12.4669 7.14289 13.83 7.14289C15.1931 7.14289 16.1366 7.15777 16.6604 7.18753C17.8985 7.24706 18.8568 7.61611 19.5354 8.29468C20.214 8.97325 20.583 9.93158 20.6425 11.1697Z" fill="#C19B76"/>
</svg>
