<svg width="15" height="14" viewBox="0 0 15 14" fill="none" xmlns="http://www.w3.org/2000/svg">
<path d="M14.0762 1.8457L9.6875 0.0273438L5.32617 1.75L0.923828 0.0273438C0.905599 0.0182295 0.88737 0.0136719 0.869141 0.0136719C0.850911 0.0136719 0.832682 0.0136719 0.814453 0.0136719C0.723307 0.0136719 0.648112 0.043294 0.588867 0.102539C0.529622 0.161784 0.5 0.241536 0.5 0.341797V11.6895C0.5 11.8171 0.541016 11.9333 0.623047 12.0381C0.705078 12.1429 0.805339 12.2135 0.923828 12.25L5.32617 13.9863L9.6875 12.2227L14.0762 13.9453C14.0944 13.9453 14.1126 13.9476 14.1309 13.9521C14.1491 13.9567 14.1673 13.959 14.1855 13.959C14.2767 13.959 14.3519 13.9271 14.4111 13.8633C14.4704 13.7995 14.5 13.7174 14.5 13.6172V2.40625C14.5 2.27865 14.459 2.16243 14.377 2.05762C14.2949 1.9528 14.1947 1.88216 14.0762 1.8457ZM5.75 2.47461L9.25 1.10742V11.5117L5.75 12.9062V2.47461ZM1.375 1.18945L4.875 2.47461V12.8926L1.375 11.4707V1.18945ZM13.625 12.8242L10.125 11.5117V1.12109L13.625 2.625V12.8242Z" fill="#C19B76"/>
</svg>
