<svg width="15" height="14" viewBox="0 0 15 14" fill="none" xmlns="http://www.w3.org/2000/svg">
<path d="M4.08203 0.505859C4.33724 0.861328 4.61751 1.26693 4.92285 1.72266C5.22819 2.17839 5.55859 2.68425 5.91406 3.24023C6.00521 3.38607 6.04395 3.55013 6.03027 3.73242C6.0166 3.91471 5.95052 4.11068 5.83203 4.32031C5.78646 4.41146 5.70898 4.55729 5.59961 4.75781C5.49023 4.95833 5.34896 5.2181 5.17578 5.53711C5.36719 5.81055 5.611 6.11589 5.90723 6.45312C6.20345 6.79036 6.54753 7.15495 6.93945 7.54688C7.34049 7.94792 7.70736 8.29655 8.04004 8.59277C8.37272 8.889 8.67122 9.13281 8.93555 9.32422C9.24544 9.14193 9.50293 8.99381 9.70801 8.87988C9.91309 8.76595 10.0612 8.6862 10.1523 8.64062C10.2617 8.57682 10.3734 8.52897 10.4873 8.49707C10.6012 8.46517 10.7083 8.44922 10.8086 8.44922C10.8906 8.44922 10.9658 8.45833 11.0342 8.47656C11.1025 8.49479 11.1686 8.52214 11.2324 8.55859C11.6426 8.80469 12.0755 9.0804 12.5312 9.38574C12.987 9.69108 13.4746 10.026 13.9941 10.3906C14.0853 10.4544 14.1582 10.5365 14.2129 10.6367C14.2676 10.737 14.304 10.8464 14.3223 10.9648C14.3314 11.0924 14.3177 11.2223 14.2812 11.3545C14.2448 11.4867 14.181 11.6211 14.0898 11.7578C14.0534 11.8216 13.9987 11.8991 13.9258 11.9902C13.8529 12.0814 13.7663 12.1862 13.666 12.3047C13.5749 12.4232 13.4564 12.5576 13.3105 12.708C13.1647 12.8584 12.9915 13.0247 12.791 13.207C12.5996 13.3893 12.4242 13.526 12.2646 13.6172C12.1051 13.7083 11.9661 13.7539 11.8477 13.7539H11.8203C11.3464 13.7357 10.8496 13.6331 10.3301 13.4463C9.81055 13.2594 9.26367 12.9928 8.68945 12.6465C8.11523 12.3001 7.51367 11.8672 6.88477 11.3477C6.25586 10.8281 5.59961 10.2311 4.91602 9.55664C4.23242 8.87305 3.63314 8.2168 3.11816 7.58789C2.60319 6.95898 2.17025 6.35742 1.81934 5.7832C1.46842 5.20898 1.20182 4.65983 1.01953 4.13574C0.83724 3.61165 0.736979 3.11719 0.71875 2.65234C0.71875 2.52474 0.764323 2.38118 0.855469 2.22168C0.946615 2.06217 1.08333 1.88216 1.26562 1.68164C1.44792 1.48112 1.61198 1.31022 1.75781 1.16895C1.90365 1.02767 2.03581 0.911458 2.1543 0.820312C2.26367 0.738281 2.36849 0.660808 2.46875 0.587891C2.56901 0.514974 2.6556 0.451172 2.72852 0.396484C2.82878 0.323567 2.93359 0.271159 3.04297 0.239258C3.15234 0.207356 3.27083 0.191406 3.39844 0.191406C3.54427 0.191406 3.67415 0.216472 3.78809 0.266602C3.90202 0.316731 4 0.396484 4.08203 0.505859ZM3.20703 1.06641C3.02474 1.19401 2.84701 1.33301 2.67383 1.4834C2.50065 1.63379 2.33203 1.79102 2.16797 1.95508C2.00391 2.11914 1.87402 2.26042 1.77832 2.37891C1.68262 2.4974 1.62109 2.59766 1.59375 2.67969C1.61198 3.08984 1.70768 3.52734 1.88086 3.99219C2.05404 4.45703 2.30469 4.9515 2.63281 5.47559C2.96094 5.99967 3.36654 6.55111 3.84961 7.12988C4.33268 7.70866 4.89323 8.31706 5.53125 8.95508C6.16927 9.5931 6.77767 10.1536 7.35645 10.6367C7.93522 11.1198 8.48665 11.5254 9.01074 11.8535C9.53483 12.1816 10.0316 12.4323 10.501 12.6055C10.9704 12.7786 11.4102 12.8789 11.8203 12.9062C11.8841 12.8789 11.9753 12.8151 12.0938 12.7148C12.2122 12.6146 12.3535 12.4824 12.5176 12.3184C12.6816 12.1543 12.8366 11.9834 12.9824 11.8057C13.1283 11.6279 13.2695 11.4479 13.4062 11.2656C13.4336 11.2292 13.4518 11.195 13.4609 11.1631C13.4701 11.1312 13.4701 11.1016 13.4609 11.0742C12.9323 10.7005 12.4469 10.3678 12.0049 10.0762C11.5628 9.78451 11.1641 9.52474 10.8086 9.29688C10.7721 9.29688 10.7311 9.30371 10.6855 9.31738C10.64 9.33105 10.5898 9.35156 10.5352 9.37891C10.4622 9.42448 10.3255 9.50195 10.125 9.61133C9.92448 9.7207 9.66471 9.86198 9.3457 10.0352L8.89453 10.3086L8.44336 10.0078C8.15169 9.80729 7.8304 9.5498 7.47949 9.23535C7.12858 8.9209 6.74349 8.55404 6.32422 8.13477C5.91406 7.71549 5.55404 7.3304 5.24414 6.97949C4.93424 6.62858 4.67904 6.30729 4.47852 6.01562L4.15039 5.5918L4.42383 5.11328C4.59701 4.79427 4.73828 4.53678 4.84766 4.34082C4.95703 4.14486 5.03451 4.00586 5.08008 3.92383C5.10742 3.86914 5.12793 3.81901 5.1416 3.77344C5.15527 3.72786 5.16211 3.68685 5.16211 3.65039C4.8431 3.14909 4.54004 2.67969 4.25293 2.24219C3.96582 1.80469 3.6901 1.39453 3.42578 1.01172H3.39844C3.36198 1.01172 3.3278 1.01628 3.2959 1.02539C3.264 1.0345 3.23438 1.04818 3.20703 1.06641Z" fill="#C19B76"/>
</svg>
