<svg width="15" height="14" viewBox="0 0 15 14" fill="none" xmlns="http://www.w3.org/2000/svg">
<path d="M13.5293 3.48633H11.875V0H3.125V3.48633H1.4707C1.20638 3.48633 0.978516 3.58203 0.787109 3.77344C0.595703 3.96484 0.5 4.19271 0.5 4.45703V10.3906C0.5 10.6641 0.595703 10.8965 0.787109 11.0879C0.978516 11.2793 1.20638 11.375 1.4707 11.375H3.125V14H11.875V11.375H13.5293C13.7936 11.375 14.0215 11.2793 14.2129 11.0879C14.4043 10.8965 14.5 10.6641 14.5 10.3906V4.45703C14.5 4.19271 14.4043 3.96484 14.2129 3.77344C14.0215 3.58203 13.7936 3.48633 13.5293 3.48633ZM4 0.861328H11V3.48633H4V0.861328ZM11 13.125H4V8.29883H11V13.125ZM13.625 10.3906C13.625 10.418 13.6159 10.443 13.5977 10.4658C13.5794 10.4886 13.5566 10.5 13.5293 10.5H11.875V7.42383H3.125V10.4863H1.4707C1.44336 10.4863 1.42057 10.4772 1.40234 10.459C1.38411 10.4408 1.375 10.418 1.375 10.3906V4.45703C1.375 4.42969 1.38411 4.4069 1.40234 4.38867C1.42057 4.37044 1.44336 4.36133 1.4707 4.36133H13.5293C13.5566 4.36133 13.5794 4.37044 13.5977 4.38867C13.6159 4.4069 13.625 4.42969 13.625 4.45703V10.3906ZM11.875 5.23633H11.4375C11.319 5.23633 11.2165 5.27962 11.1299 5.36621C11.0433 5.4528 11 5.55534 11 5.67383C11 5.80143 11.0433 5.90625 11.1299 5.98828C11.2165 6.07031 11.319 6.11133 11.4375 6.11133H11.875C11.9935 6.11133 12.096 6.07031 12.1826 5.98828C12.2692 5.90625 12.3125 5.80143 12.3125 5.67383C12.3125 5.55534 12.2692 5.4528 12.1826 5.36621C12.096 5.27962 11.9935 5.23633 11.875 5.23633Z" fill="#C19B76"/>
</svg>
